# Blender 3.5.1
# www.blender.org
mtllib P_Canap.mtl
o Cube.002
v -1.500000 0.368076 0.000000
v -1.500000 0.631924 0.000000
v -1.500000 0.631924 -1.000000
v 1.500000 0.368076 0.000000
v 1.500000 0.631924 0.000000
v 1.500000 0.631924 -1.000000
v -1.242472 0.631924 -1.000000
v 1.242472 0.631924 -1.000000
v -1.242472 0.368076 0.000000
v 1.242472 0.368076 0.000000
v 1.242472 0.631924 0.000000
v -1.242472 0.631924 0.000000
v -1.500000 0.368076 -0.842125
v -1.500000 0.631924 -0.842125
v 1.500000 0.368076 -0.842125
v 1.500000 0.631924 -0.842125
v 1.242472 0.631924 -0.842125
v -1.242472 0.631924 -0.842125
v -1.242472 0.368076 -0.842125
v 1.242472 0.368076 -0.842125
v -1.500000 0.983693 -0.842125
v -1.500000 0.983693 -1.000000
v 1.242472 0.983693 -1.000000
v 1.500000 0.983693 -1.000000
v 1.500000 0.983693 -0.842125
v 1.500000 0.983693 0.000000
v -1.242472 0.983693 0.000000
v -1.500000 0.983693 0.000000
v -1.242472 0.983693 -1.000000
v 1.242472 0.983693 0.000000
v 1.242472 0.983693 -0.842125
v -1.242472 0.983693 -0.842125
v -1.242472 1.225623 -1.066347
v 1.242472 1.225623 -1.066347
v 1.242472 1.225623 -0.908472
v -1.242472 1.225623 -0.908472
v -1.500000 0.385357 -1.000000
v -1.500000 0.368076 -0.934502
v 1.500000 0.368076 -0.934502
v 1.500000 0.385357 -1.000000
v 1.242472 0.368076 -0.934502
v 1.242472 0.385357 -1.000000
v -1.242472 0.385357 -1.000000
v -1.242472 0.368076 -0.934502
v -1.400000 0.001984 -0.233491
v -1.400000 0.385459 -0.233491
v -1.375542 0.001984 -0.228626
v -1.375542 0.385459 -0.228626
v -1.354807 0.001984 -0.214772
v -1.354807 0.385459 -0.214772
v -1.340953 0.001984 -0.194037
v -1.340953 0.385459 -0.194037
v -1.336087 0.001984 -0.169579
v -1.336087 0.385459 -0.169579
v -1.340953 0.001984 -0.145120
v -1.340953 0.385459 -0.145120
v -1.354807 0.001984 -0.124386
v -1.354807 0.385459 -0.124386
v -1.375542 0.001984 -0.110531
v -1.375542 0.385459 -0.110531
v -1.400000 0.001984 -0.105666
v -1.400000 0.385459 -0.105666
v -1.424458 0.001984 -0.110531
v -1.424458 0.385459 -0.110531
v -1.445193 0.001984 -0.124386
v -1.445193 0.385459 -0.124386
v -1.459048 0.001984 -0.145120
v -1.459048 0.385459 -0.145120
v -1.463913 0.001984 -0.169579
v -1.463913 0.385459 -0.169579
v -1.459048 0.001984 -0.194037
v -1.459048 0.385459 -0.194037
v -1.445193 0.001984 -0.214772
v -1.445193 0.385459 -0.214772
v -1.424458 0.001984 -0.228626
v -1.424458 0.385459 -0.228626
v -1.400000 0.003976 -0.905507
v -1.400000 0.387452 -0.905507
v -1.375542 0.003976 -0.900642
v -1.375542 0.387452 -0.900642
v -1.354807 0.003976 -0.886788
v -1.354807 0.387452 -0.886788
v -1.340953 0.003976 -0.866053
v -1.340953 0.387452 -0.866053
v -1.336087 0.003976 -0.841595
v -1.336087 0.387452 -0.841595
v -1.340953 0.003976 -0.817136
v -1.340953 0.387452 -0.817136
v -1.354807 0.003976 -0.796402
v -1.354807 0.387452 -0.796402
v -1.375542 0.003976 -0.782547
v -1.375542 0.387452 -0.782547
v -1.400000 0.003976 -0.777682
v -1.400000 0.387452 -0.777682
v -1.424458 0.003976 -0.782547
v -1.424458 0.387452 -0.782547
v -1.445193 0.003976 -0.796402
v -1.445193 0.387452 -0.796402
v -1.459048 0.003976 -0.817136
v -1.459048 0.387452 -0.817136
v -1.463913 0.003976 -0.841595
v -1.463913 0.387452 -0.841595
v -1.459048 0.003976 -0.866053
v -1.459048 0.387452 -0.866053
v -1.445193 0.003976 -0.886788
v -1.445193 0.387452 -0.886788
v -1.424458 0.003976 -0.900642
v -1.424458 0.387452 -0.900642
v 1.386565 0.003976 -0.905507
v 1.386565 0.387452 -0.905507
v 1.411024 0.003976 -0.900642
v 1.411024 0.387452 -0.900642
v 1.431758 0.003976 -0.886788
v 1.431758 0.387452 -0.886788
v 1.445613 0.003976 -0.866053
v 1.445613 0.387452 -0.866053
v 1.450478 0.003976 -0.841595
v 1.450478 0.387452 -0.841595
v 1.445613 0.003976 -0.817136
v 1.445613 0.387452 -0.817136
v 1.431758 0.003976 -0.796402
v 1.431758 0.387452 -0.796402
v 1.411024 0.003976 -0.782547
v 1.411024 0.387452 -0.782547
v 1.386565 0.003976 -0.777682
v 1.386565 0.387452 -0.777682
v 1.362107 0.003976 -0.782547
v 1.362107 0.387452 -0.782547
v 1.341372 0.003976 -0.796402
v 1.341372 0.387452 -0.796402
v 1.327518 0.003976 -0.817136
v 1.327518 0.387452 -0.817136
v 1.322653 0.003976 -0.841595
v 1.322653 0.387452 -0.841595
v 1.327518 0.003976 -0.866053
v 1.327518 0.387452 -0.866053
v 1.341372 0.003976 -0.886788
v 1.341372 0.387452 -0.886788
v 1.362107 0.003976 -0.900642
v 1.362107 0.387452 -0.900642
v 1.381186 0.000243 -0.233491
v 1.381186 0.383719 -0.233491
v 1.405644 0.000243 -0.228626
v 1.405644 0.383719 -0.228626
v 1.426379 0.000243 -0.214772
v 1.426379 0.383719 -0.214772
v 1.440233 0.000243 -0.194037
v 1.440233 0.383719 -0.194037
v 1.445098 0.000243 -0.169579
v 1.445098 0.383719 -0.169579
v 1.440233 0.000243 -0.145120
v 1.440233 0.383719 -0.145120
v 1.426379 0.000243 -0.124386
v 1.426379 0.383719 -0.124386
v 1.405644 0.000243 -0.110531
v 1.405644 0.383719 -0.110531
v 1.381186 0.000243 -0.105666
v 1.381186 0.383719 -0.105666
v 1.356728 0.000243 -0.110531
v 1.356728 0.383719 -0.110531
v 1.335993 0.000243 -0.124386
v 1.335993 0.383719 -0.124386
v 1.322138 0.000243 -0.145120
v 1.322138 0.383719 -0.145120
v 1.317273 0.000243 -0.169579
v 1.317273 0.383719 -0.169579
v 1.322138 0.000243 -0.194037
v 1.322138 0.383719 -0.194037
v 1.335993 0.000243 -0.214772
v 1.335993 0.383719 -0.214772
v 1.356728 0.000243 -0.228626
v 1.356728 0.383719 -0.228626
vn 1.0000 -0.0000 -0.0000
vn -0.0000 -1.0000 -0.0000
vn -0.0000 -0.0000 1.0000
vn -0.0000 1.0000 -0.0000
vn -0.0000 -0.0000 -1.0000
vn -1.0000 -0.0000 -0.0000
vn -0.0000 -0.2645 -0.9644
vn -0.0000 0.2645 0.9644
vn -0.0000 -0.9669 -0.2551
vn 0.1951 -0.0000 -0.9808
vn 0.5556 -0.0000 -0.8315
vn 0.6847 -0.0000 -0.7288
vn 0.9183 -0.0000 -0.3958
vn 0.9183 -0.0000 0.3958
vn 0.6847 -0.0000 0.7288
vn 0.5556 -0.0000 0.8315
vn 0.1951 -0.0000 0.9808
vn -0.1951 -0.0000 0.9808
vn -0.5556 -0.0000 0.8315
vn -0.6847 -0.0000 0.7288
vn -0.9183 -0.0000 0.3958
vn -0.9183 -0.0000 -0.3958
vn -0.6847 -0.0000 -0.7288
vn -0.5556 -0.0000 -0.8315
vn -0.1951 -0.0000 -0.9808
vt 1.000000 0.735735
vt 0.750000 0.985735
vt 0.000000 0.735735
vt 1.000000 0.485735
vt 0.000000 0.485735
vt 0.250000 0.485735
vt 0.750000 0.735735
vt 0.750000 0.485735
vt 0.500000 0.485735
vt 0.333333 0.485735
vt 0.416667 0.485735
vt 0.750000 0.902402
vt 0.916667 0.735735
vt 0.750000 0.819069
vt 0.833333 0.735735
vt 0.750000 0.402402
vt 0.833333 0.485735
vt 0.750000 0.319069
vt 0.916667 0.485735
vt 0.539469 0.985735
vt 0.210531 0.735735
vt 0.210531 0.485735
vt 0.539469 0.735735
vt 0.539469 0.485735
vt 0.539469 0.402402
vt 0.539469 0.319069
vt 0.539469 0.902402
vt 0.539469 0.819069
vt 0.539469 0.235735
vt 0.210531 0.485735
vt 0.500000 0.235735
vt 0.250000 0.485735
vt 0.416667 0.485735
vt 0.500000 0.402402
vt 0.500000 0.485735
vt 0.539469 0.485735
vt 0.750000 0.485735
vt 0.750000 0.319069
vt 0.916667 0.485735
vt 0.750000 0.235735
vt 1.000000 0.485735
vt 0.000000 0.485735
vt 0.333333 0.485735
vt 0.500000 0.319069
vt 0.750000 0.402402
vt 0.833333 0.485735
vt 0.539469 0.402402
vt 0.539469 0.319069
vt 0.333333 0.485735
vt 0.500000 0.319069
vt 0.416667 0.485735
vt 0.500000 0.402402
vt 0.539469 0.402402
vt 0.539469 0.319069
vt 0.500000 0.985735
vt 0.250000 0.719361
vt 0.233625 0.735735
vt 0.516374 0.985735
vt 0.516374 0.735735
vt 0.500000 0.719361
vt 0.500000 0.735735
vt 0.516374 0.819069
vt 0.416667 0.719361
vt 0.500000 0.819069
vt 0.500000 0.902402
vt 0.333333 0.719361
vt 0.516374 0.902402
vt 0.000000 0.188895
vt 0.377789 0.188895
vt 0.094447 0.192673
vt 0.000000 0.000000
vt 0.283342 0.192673
vt 0.377789 0.000000
vt 0.023612 0.188895
vt 0.059750 0.199574
vt 0.023612 0.000000
vt 0.248644 0.199574
vt 0.047224 0.188895
vt 0.030334 0.219229
vt 0.047224 0.000000
vt 0.219229 0.219229
vt 0.070836 0.188895
vt 0.010680 0.248644
vt 0.070836 0.000000
vt 0.199574 0.248644
vt 0.094447 0.188895
vt 0.003778 0.283342
vt 0.094447 0.000000
vt 0.192673 0.283342
vt 0.118059 0.188895
vt 0.010680 0.318040
vt 0.118059 0.000000
vt 0.199574 0.318040
vt 0.141671 0.188895
vt 0.030334 0.347455
vt 0.141671 0.000000
vt 0.219229 0.347455
vt 0.165283 0.188895
vt 0.059750 0.367110
vt 0.165283 0.000000
vt 0.248644 0.367110
vt 0.188895 0.188895
vt 0.094447 0.374012
vt 0.188895 0.000000
vt 0.283342 0.374012
vt 0.212507 0.188895
vt 0.129145 0.367110
vt 0.212507 0.000000
vt 0.318040 0.367110
vt 0.236118 0.188895
vt 0.158560 0.347455
vt 0.236118 0.000000
vt 0.347455 0.347455
vt 0.259730 0.188895
vt 0.178215 0.318040
vt 0.259730 0.000000
vt 0.367110 0.318040
vt 0.283342 0.188895
vt 0.185117 0.283342
vt 0.283342 0.000000
vt 0.374012 0.283342
vt 0.306954 0.188895
vt 0.178215 0.248644
vt 0.306954 0.000000
vt 0.367110 0.248644
vt 0.330566 0.188895
vt 0.158560 0.219229
vt 0.347455 0.219229
vt 0.330566 0.000000
vt 0.354178 0.188895
vt 0.129145 0.199574
vt 0.318040 0.199574
vt 0.354178 0.000000
vt 0.000000 0.188895
vt 0.377789 0.188895
vt 0.094447 0.192673
vt 0.000000 0.000000
vt 0.283342 0.192673
vt 0.377789 0.000000
vt 0.023612 0.188895
vt 0.059750 0.199574
vt 0.023612 0.000000
vt 0.248644 0.199574
vt 0.047224 0.188895
vt 0.030334 0.219229
vt 0.047224 0.000000
vt 0.219229 0.219229
vt 0.070836 0.188895
vt 0.010680 0.248644
vt 0.070836 0.000000
vt 0.199574 0.248644
vt 0.094447 0.188895
vt 0.003778 0.283342
vt 0.094447 0.000000
vt 0.192673 0.283342
vt 0.118059 0.188895
vt 0.010680 0.318040
vt 0.118059 0.000000
vt 0.199574 0.318040
vt 0.141671 0.188895
vt 0.030334 0.347455
vt 0.141671 0.000000
vt 0.219229 0.347455
vt 0.165283 0.188895
vt 0.059750 0.367110
vt 0.165283 0.000000
vt 0.248644 0.367110
vt 0.188895 0.188895
vt 0.094447 0.374012
vt 0.188895 0.000000
vt 0.283342 0.374012
vt 0.212507 0.188895
vt 0.129145 0.367110
vt 0.212507 0.000000
vt 0.318040 0.367110
vt 0.236118 0.188895
vt 0.158560 0.347455
vt 0.236118 0.000000
vt 0.347455 0.347455
vt 0.259730 0.188895
vt 0.178215 0.318040
vt 0.259730 0.000000
vt 0.367110 0.318040
vt 0.283342 0.188895
vt 0.185117 0.283342
vt 0.283342 0.000000
vt 0.374012 0.283342
vt 0.306954 0.188895
vt 0.178215 0.248644
vt 0.306954 0.000000
vt 0.367110 0.248644
vt 0.330566 0.188895
vt 0.158560 0.219229
vt 0.347455 0.219229
vt 0.330566 0.000000
vt 0.354178 0.188895
vt 0.129145 0.199574
vt 0.318040 0.199574
vt 0.354178 0.000000
vt 0.000000 0.188895
vt 0.377789 0.188895
vt 0.283203 0.372025
vt 0.000000 0.000000
vt 0.283342 0.192673
vt 0.377789 0.000000
vt 0.023612 0.188895
vt 0.317194 0.365264
vt 0.023612 0.000000
vt 0.248644 0.199574
vt 0.047224 0.188895
vt 0.346010 0.346010
vt 0.047224 0.000000
vt 0.219229 0.219229
vt 0.070836 0.188895
vt 0.365264 0.317194
vt 0.070836 0.000000
vt 0.199574 0.248644
vt 0.094447 0.188895
vt 0.372025 0.283203
vt 0.094447 0.000000
vt 0.192673 0.283342
vt 0.118059 0.188895
vt 0.365264 0.249212
vt 0.118059 0.000000
vt 0.199574 0.318040
vt 0.141671 0.188895
vt 0.346010 0.220396
vt 0.141671 0.000000
vt 0.219229 0.347455
vt 0.165283 0.188895
vt 0.317194 0.201142
vt 0.165283 0.000000
vt 0.248644 0.367110
vt 0.188895 0.188895
vt 0.283203 0.194381
vt 0.188895 0.000000
vt 0.283342 0.374012
vt 0.212507 0.188895
vt 0.249212 0.201142
vt 0.212507 0.000000
vt 0.318040 0.367110
vt 0.236118 0.188895
vt 0.220396 0.220396
vt 0.236118 0.000000
vt 0.347455 0.347455
vt 0.259730 0.188895
vt 0.201142 0.249212
vt 0.259730 0.000000
vt 0.367110 0.318040
vt 0.283342 0.188895
vt 0.194381 0.283203
vt 0.283342 0.000000
vt 0.374012 0.283342
vt 0.306954 0.188895
vt 0.201142 0.317194
vt 0.306954 0.000000
vt 0.367110 0.248644
vt 0.330566 0.188895
vt 0.220396 0.346010
vt 0.347455 0.219229
vt 0.330566 0.000000
vt 0.354178 0.188895
vt 0.249212 0.365264
vt 0.318040 0.199574
vt 0.354178 0.000000
vt 0.000000 0.188895
vt 0.377789 0.188895
vt 0.283203 0.372025
vt 0.000000 0.000000
vt 0.283342 0.192673
vt 0.377789 0.000000
vt 0.023612 0.188895
vt 0.317194 0.365264
vt 0.023612 0.000000
vt 0.248644 0.199574
vt 0.047224 0.188895
vt 0.346010 0.346010
vt 0.047224 0.000000
vt 0.219229 0.219229
vt 0.070836 0.188895
vt 0.365264 0.317194
vt 0.070836 0.000000
vt 0.199574 0.248644
vt 0.094447 0.188895
vt 0.372025 0.283203
vt 0.094447 0.000000
vt 0.192673 0.283342
vt 0.118059 0.188895
vt 0.365264 0.249212
vt 0.118059 0.000000
vt 0.199574 0.318040
vt 0.141671 0.188895
vt 0.346010 0.220396
vt 0.141671 0.000000
vt 0.219229 0.347455
vt 0.165283 0.188895
vt 0.317194 0.201142
vt 0.165283 0.000000
vt 0.248644 0.367110
vt 0.188895 0.188895
vt 0.283203 0.194381
vt 0.188895 0.000000
vt 0.283342 0.374012
vt 0.212507 0.188895
vt 0.249212 0.201142
vt 0.212507 0.000000
vt 0.318040 0.367110
vt 0.236118 0.188895
vt 0.220396 0.220396
vt 0.236118 0.000000
vt 0.347455 0.347455
vt 0.259730 0.188895
vt 0.201142 0.249212
vt 0.259730 0.000000
vt 0.367110 0.318040
vt 0.283342 0.188895
vt 0.194381 0.283203
vt 0.283342 0.000000
vt 0.374012 0.283342
vt 0.306954 0.188895
vt 0.201142 0.317194
vt 0.306954 0.000000
vt 0.367110 0.248644
vt 0.330566 0.188895
vt 0.220396 0.346010
vt 0.347455 0.219229
vt 0.330566 0.000000
vt 0.354178 0.188895
vt 0.249212 0.365264
vt 0.318040 0.199574
vt 0.354178 0.000000
s 0
usemtl 
f 39/59/1 40/60/1 6/9/1 16/24/1 15/23/1
f 44/67/2 41/62/2 20/28/2 19/27/2
f 15/23/1 16/24/1 5/8/1 4/7/1
f 9/13/3 12/19/3 2/4/3 1/1/3
f 20/28/2 15/23/2 4/7/2 10/14/2
f 12/18/1 18/26/1 32/48/1 27/38/1
f 18/26/3 17/25/3 31/47/3 32/48/3
f 17/25/4 18/26/4 12/18/4 11/16/4
f 13/20/2 19/27/2 9/12/2 1/2/2
f 19/27/2 20/28/2 10/14/2 9/12/2
f 4/7/3 5/8/3 11/17/3 10/15/3
f 10/15/3 11/17/3 12/19/3 9/13/3
f 38/58/2 44/67/2 19/27/2 13/20/2
f 43/66/5 7/10/5 8/11/5 42/63/5
f 13/21/6 14/22/6 3/6/6 37/56/6 38/57/6
f 7/10/5 3/6/5 22/32/5 29/43/5
f 16/24/1 6/9/1 24/35/1 25/36/1
f 17/25/6 11/16/6 30/45/6 31/47/6
f 42/63/5 8/11/5 6/9/5 40/60/5
f 41/62/2 39/59/2 15/23/2 20/28/2
f 1/3/6 2/5/6 14/22/6 13/21/6
f 32/48/4 21/29/4 28/40/4 27/38/4
f 25/36/4 31/47/4 30/45/4 26/37/4
f 23/33/7 29/43/7 33/49/7 34/51/7
f 24/35/4 23/34/4 31/47/4 25/36/4
f 29/44/4 22/31/4 21/29/4 32/48/4
f 2/4/3 12/19/3 27/39/3 28/41/3
f 11/17/3 5/8/3 26/37/3 30/46/3
f 5/8/1 16/24/1 25/36/1 26/37/1
f 8/11/5 7/10/5 29/43/5 23/33/5
f 6/9/5 8/11/5 23/33/5 24/35/5
f 14/22/6 2/5/6 28/42/6 21/30/6
f 3/6/6 14/22/6 21/30/6 22/32/6
f 34/52/4 33/50/4 36/54/4 35/53/4
f 29/44/6 32/48/6 36/54/6 33/50/6
f 32/48/8 31/47/8 35/53/8 36/54/8
f 31/47/1 23/34/1 34/52/1 35/53/1
f 44/67/9 38/58/9 37/55/9 43/65/9
f 39/59/9 41/62/9 42/64/9 40/61/9
f 41/62/9 44/67/9 43/65/9 42/64/9
f 37/56/5 3/6/5 7/10/5 43/66/5
s 1
f 45/68/10 46/71/10 48/76/10 47/74/10
f 47/74/11 48/76/11 50/80/12 49/78/12
f 49/78/12 50/80/12 52/84/13 51/82/13
f 51/82/13 52/84/13 54/88/1 53/86/1
f 53/86/1 54/88/1 56/92/14 55/90/14
f 55/90/14 56/92/14 58/96/15 57/94/15
f 57/94/15 58/96/15 60/100/16 59/98/16
f 59/98/17 60/100/17 62/104/17 61/102/17
f 61/102/18 62/104/18 64/108/18 63/106/18
f 63/106/19 64/108/19 66/112/20 65/110/20
f 65/110/20 66/112/20 68/116/21 67/114/21
f 67/114/21 68/116/21 70/120/6 69/118/6
f 69/118/6 70/120/6 72/124/22 71/122/22
f 71/122/22 72/124/22 74/129/23 73/126/23
f 48/77/4 46/72/4 76/132/4 74/128/4 72/125/4 70/121/4 68/117/4 66/113/4 64/109/4 62/105/4 60/101/4 58/97/4 56/93/4 54/89/4 52/85/4 50/81/4
f 73/126/23 74/129/23 76/133/24 75/130/24
f 75/130/25 76/133/25 46/73/25 45/69/25
f 45/70/2 47/75/2 49/79/2 51/83/2 53/87/2 55/91/2 57/95/2 59/99/2 61/103/2 63/107/2 65/111/2 67/115/2 69/119/2 71/123/2 73/127/2 75/131/2
f 77/134/10 78/137/10 80/142/10 79/140/10
f 79/140/11 80/142/11 82/146/12 81/144/12
f 81/144/12 82/146/12 84/150/13 83/148/13
f 83/148/13 84/150/13 86/154/1 85/152/1
f 85/152/1 86/154/1 88/158/14 87/156/14
f 87/156/14 88/158/14 90/162/15 89/160/15
f 89/160/15 90/162/15 92/166/16 91/164/16
f 91/164/17 92/166/17 94/170/17 93/168/17
f 93/168/18 94/170/18 96/174/18 95/172/18
f 95/172/19 96/174/19 98/178/20 97/176/20
f 97/176/20 98/178/20 100/182/21 99/180/21
f 99/180/21 100/182/21 102/186/6 101/184/6
f 101/184/6 102/186/6 104/190/22 103/188/22
f 103/188/22 104/190/22 106/195/23 105/192/23
f 80/143/4 78/138/4 108/198/4 106/194/4 104/191/4 102/187/4 100/183/4 98/179/4 96/175/4 94/171/4 92/167/4 90/163/4 88/159/4 86/155/4 84/151/4 82/147/4
f 105/192/23 106/195/23 108/199/24 107/196/24
f 107/196/25 108/199/25 78/139/25 77/135/25
f 77/136/2 79/141/2 81/145/2 83/149/2 85/153/2 87/157/2 89/161/2 91/165/2 93/169/2 95/173/2 97/177/2 99/181/2 101/185/2 103/189/2 105/193/2 107/197/2
f 109/200/10 110/203/10 112/208/10 111/206/10
f 111/206/11 112/208/11 114/212/12 113/210/12
f 113/210/12 114/212/12 116/216/13 115/214/13
f 115/214/13 116/216/13 118/220/1 117/218/1
f 117/218/1 118/220/1 120/224/14 119/222/14
f 119/222/14 120/224/14 122/228/15 121/226/15
f 121/226/15 122/228/15 124/232/16 123/230/16
f 123/230/17 124/232/17 126/236/17 125/234/17
f 125/234/18 126/236/18 128/240/18 127/238/18
f 127/238/19 128/240/19 130/244/20 129/242/20
f 129/242/20 130/244/20 132/248/21 131/246/21
f 131/246/21 132/248/21 134/252/6 133/250/6
f 133/250/6 134/252/6 136/256/22 135/254/22
f 135/254/22 136/256/22 138/261/23 137/258/23
f 112/209/4 110/204/4 140/264/4 138/260/4 136/257/4 134/253/4 132/249/4 130/245/4 128/241/4 126/237/4 124/233/4 122/229/4 120/225/4 118/221/4 116/217/4 114/213/4
f 137/258/23 138/261/23 140/265/24 139/262/24
f 139/262/25 140/265/25 110/205/25 109/201/25
f 109/202/2 111/207/2 113/211/2 115/215/2 117/219/2 119/223/2 121/227/2 123/231/2 125/235/2 127/239/2 129/243/2 131/247/2 133/251/2 135/255/2 137/259/2 139/263/2
f 141/266/10 142/269/10 144/274/10 143/272/10
f 143/272/11 144/274/11 146/278/12 145/276/12
f 145/276/12 146/278/12 148/282/13 147/280/13
f 147/280/13 148/282/13 150/286/1 149/284/1
f 149/284/1 150/286/1 152/290/14 151/288/14
f 151/288/14 152/290/14 154/294/15 153/292/15
f 153/292/15 154/294/15 156/298/16 155/296/16
f 155/296/17 156/298/17 158/302/17 157/300/17
f 157/300/18 158/302/18 160/306/18 159/304/18
f 159/304/19 160/306/19 162/310/20 161/308/20
f 161/308/20 162/310/20 164/314/21 163/312/21
f 163/312/21 164/314/21 166/318/6 165/316/6
f 165/316/6 166/318/6 168/322/22 167/320/22
f 167/320/22 168/322/22 170/327/23 169/324/23
f 144/275/4 142/270/4 172/330/4 170/326/4 168/323/4 166/319/4 164/315/4 162/311/4 160/307/4 158/303/4 156/299/4 154/295/4 152/291/4 150/287/4 148/283/4 146/279/4
f 169/324/23 170/327/23 172/331/24 171/328/24
f 171/328/25 172/331/25 142/271/25 141/267/25
f 141/268/2 143/273/2 145/277/2 147/281/2 149/285/2 151/289/2 153/293/2 155/297/2 157/301/2 159/305/2 161/309/2 163/313/2 165/317/2 167/321/2 169/325/2 171/329/2
