# Blender 3.5.1
# www.blender.org
mtllib P_TV.mtl
o Cube.003
v -0.214334 -0.004173 0.200000
v -0.037864 0.075654 0.023530
v -0.214334 -0.004173 -0.200000
v -0.037864 0.075654 -0.023530
v 0.185666 -0.004173 0.200000
v 0.009196 0.075654 0.023530
v 0.185666 -0.004173 -0.200000
v 0.009196 0.075654 -0.023530
v -0.197678 0.006850 0.183344
v -0.197678 0.006850 -0.183344
v 0.169010 0.006850 -0.183344
v 0.169010 0.006850 0.183344
v -0.014334 -0.004173 -0.200000
v -0.014334 0.075654 -0.033276
v -0.014334 -0.004173 0.200000
v -0.014334 0.075654 0.033276
v -0.014334 0.006850 0.183344
v -0.014334 0.006850 -0.183344
v -0.214334 -0.004173 0.000000
v -0.047610 0.075654 0.000000
v 0.185666 -0.004173 0.000000
v 0.018942 0.075654 -0.000000
v 0.169010 0.006850 0.000000
v -0.197678 0.006850 0.000000
v 0.030772 0.296194 0.000000
v -0.014334 -0.004173 0.000000
v 0.030937 0.291467 -0.019436
v 0.031335 0.280052 -0.027487
v 0.031732 0.268638 -0.019436
v 0.031897 0.263910 -0.000000
v 0.031732 0.268638 0.019436
v 0.031335 0.280052 0.027487
v 0.030937 0.291467 0.019436
v -0.034073 0.117987 -0.019739
v -0.014334 0.117987 -0.027915
v 0.013581 0.117987 -0.000000
v 0.005405 0.117987 0.019739
v 0.005405 0.117987 -0.019739
v -0.042250 0.117987 0.000000
v -0.034073 0.117987 0.019739
v -0.014334 0.117987 0.027915
v -0.026386 0.227037 -0.015954
v -0.037431 0.169952 -0.016768
v 0.000887 0.220133 -0.000000
v 0.003181 0.169932 -0.000000
v -0.003790 0.221320 -0.015953
v -0.003770 0.169949 -0.016764
v -0.031076 0.228213 0.000000
v -0.044417 0.169942 0.000000
v -0.026386 0.227037 0.015954
v -0.037431 0.169952 0.016768
v -0.015086 0.224181 0.022562
v -0.020581 0.169966 0.023711
v -0.020581 0.169966 -0.023711
v -0.015086 0.224181 -0.022562
v -0.003770 0.169949 0.016764
v -0.003790 0.221320 0.015953
v -0.083814 0.026519 0.069480
v -0.083814 0.026519 -0.069480
v 0.055145 0.026519 -0.069480
v 0.055145 0.026519 0.069480
v -0.014334 0.026519 0.098259
v -0.014334 0.026519 -0.098259
v 0.083925 0.026519 0.000000
v -0.112593 0.026519 -0.000000
v 0.183601 0.627473 -0.500000
v 0.183601 0.053890 -0.500000
v 0.183601 0.053890 0.500000
v 0.183601 0.627473 0.500000
v 0.175663 0.596473 -0.445954
v 0.175663 0.084889 -0.445954
v 0.175663 0.084889 0.445954
v 0.175663 0.596473 0.445954
v 0.181109 0.084889 0.445954
v 0.183477 0.072543 0.467480
v 0.183477 0.608819 0.467480
v 0.181109 0.596473 0.445954
v 0.181109 0.084889 -0.445954
v 0.183477 0.072543 -0.467480
v 0.183477 0.608819 -0.467480
v 0.181109 0.596473 -0.445954
v 0.109516 0.053890 0.500000
v 0.019842 0.241185 0.173463
v 0.109516 0.627473 0.500000
v 0.019842 0.440177 0.173463
v 0.019842 0.241185 -0.173463
v 0.109516 0.053890 -0.500000
v 0.109516 0.627473 -0.500000
v 0.019842 0.440177 -0.173463
vn -0.3040 0.9527 -0.0000
vn -0.8059 0.5921 -0.0000
vn -0.5698 0.5921 -0.5698
vn -0.1943 0.9615 -0.1943
vn -0.0000 0.9527 -0.3040
vn -0.0000 0.5921 -0.8059
vn 0.5698 0.5921 -0.5698
vn 0.1943 0.9615 -0.1943
vn 0.3040 0.9527 -0.0000
vn 0.8059 0.5921 -0.0000
vn 0.5698 0.5921 0.5698
vn 0.1943 0.9615 0.1943
vn -0.0000 0.9527 0.3040
vn -0.0000 0.5921 0.8059
vn -0.5698 0.5921 0.5698
vn -0.1943 0.9615 0.1943
vn -0.0000 -1.0000 -0.0000
vn 0.4116 -0.9114 -0.0000
vn 0.4202 -0.8043 0.4202
vn -0.0000 -0.9114 0.4116
vn 0.9870 0.1609 -0.0000
vn 0.7017 0.1445 -0.6977
vn 0.7206 0.0875 -0.6878
vn 0.9937 0.1122 -0.0000
vn -0.0000 0.9467 0.3221
vn -0.2120 0.9540 0.2120
vn -0.4202 -0.8043 0.4202
vn 0.3221 0.9467 -0.0000
vn 0.2120 0.9540 0.2120
vn -0.0000 -0.9114 -0.4116
vn -0.0000 0.9467 -0.3221
vn 0.2120 0.9540 -0.2120
vn 0.4202 -0.8043 -0.4202
vn -0.4116 -0.9114 -0.0000
vn -0.3221 0.9467 -0.0000
vn -0.2120 0.9540 -0.2120
vn -0.4202 -0.8043 -0.4202
vn -0.7033 0.0611 -0.7083
vn -0.9991 0.0429 -0.0000
vn -0.9963 0.0860 -0.0000
vn -0.7260 0.0731 -0.6838
vn 0.0043 0.1038 -0.9946
vn -0.0065 0.0608 -0.9981
vn 0.7017 0.1445 0.6977
vn 0.7206 0.0875 0.6878
vn -0.7033 0.0611 0.7083
vn -0.7260 0.0731 0.6838
vn 0.0043 0.1038 0.9946
vn -0.0065 0.0608 0.9981
vn -0.8600 0.5103 -0.0000
vn -0.7247 0.3918 0.5668
vn -0.7202 0.6346 0.2802
vn -0.7461 0.6659 -0.0000
vn -0.0247 -0.0541 0.9982
vn 0.7270 -0.2840 0.6251
vn 0.5661 -0.4880 0.6644
vn -0.4413 0.3245 0.8366
vn 0.7270 -0.2840 -0.6251
vn -0.0247 -0.0541 -0.9982
vn -0.4413 0.3245 -0.8366
vn 0.5661 -0.4880 -0.6644
vn 0.9556 -0.2946 -0.0000
vn 0.8037 -0.5950 -0.0000
vn -0.7247 0.3918 -0.5668
vn -0.7202 0.6346 -0.2802
vn 0.2716 -0.9234 0.2713
vn 0.2716 0.9234 0.2713
vn -0.2475 0.9306 0.2695
vn -0.2475 -0.9306 0.2695
vn 0.6137 0.7510 0.2437
vn 0.6137 -0.7510 0.2437
vn 0.2712 -0.9235 0.2712
vn 0.2712 0.9235 0.2712
vn 0.2716 0.9234 -0.2713
vn -0.2475 0.9306 -0.2695
vn -0.9816 -0.1544 0.1122
vn -0.9816 0.1544 0.1122
vn -0.9816 0.1544 -0.1122
vn -0.9816 -0.1544 -0.1122
vn -0.2475 -0.9306 -0.2695
vn 0.2716 -0.9234 -0.2713
vn 0.6137 -0.7510 -0.2437
vn 0.6137 0.7510 -0.2437
vn 0.2712 0.9235 -0.2712
vn 0.2712 -0.9235 -0.2712
vn 0.9993 0.0356 0.0099
vn 0.9993 0.0356 -0.0099
vn 0.9993 -0.0356 0.0099
vn 0.9993 -0.0356 -0.0099
vt 0.717739 0.235936
vt 0.540059 0.413615
vt 0.007021 0.235936
vt 0.717739 0.058256
vt 0.007021 0.058256
vt 0.184700 0.235936
vt 0.362380 0.413615
vt 0.184700 0.058256
vt 0.540059 0.235936
vt 0.540059 0.058256
vt 0.362380 0.235936
vt 0.362380 0.058256
vt 0.007021 0.147096
vt 0.717739 0.147096
vt 0.184700 0.147096
vt 0.362380 0.147096
vt 0.540059 0.147096
vt 0.273540 0.235936
vt 0.362380 0.324775
vt 0.273540 0.058256
vt 0.628899 0.235936
vt 0.540059 0.324775
vt 0.628899 0.058256
vt 0.628899 0.147096
vt 0.273540 0.147096
vt 0.451219 0.413615
vt 0.095861 0.235936
vt 0.095861 0.058256
vt 0.451219 0.235936
vt 0.451219 0.058256
vt 0.451219 0.147096
vt 0.095861 0.147096
vt 0.095861 0.058256
vt 0.451219 0.324775
vt 0.184700 0.058256
vt 0.273540 0.058256
vt 0.362380 0.058256
vt 0.451219 0.058256
vt 0.540059 0.058256
vt 0.628899 0.058256
vt 0.007021 0.058256
vt 0.717739 0.058256
vt 0.184700 0.058256
vt 0.273540 0.058256
vt 0.451219 0.058256
vt 0.540059 0.058256
vt 0.362380 0.058256
vt 0.095861 0.058256
vt 0.717739 0.058256
vt 0.007021 0.058256
vt 0.628899 0.058256
vt 0.184700 0.058256
vt 0.184700 0.058256
vt 0.451219 0.058256
vt 0.451219 0.058256
vt 0.362380 0.058256
vt 0.362380 0.058256
vt 0.095861 0.058256
vt 0.095861 0.058256
vt 0.717739 0.058256
vt 0.007021 0.058256
vt 0.717739 0.058256
vt 0.007021 0.058256
vt 0.628899 0.058256
vt 0.628899 0.058256
vt 0.273540 0.058256
vt 0.273540 0.058256
vt 0.540059 0.058256
vt 0.540059 0.058256
vt 0.007021 0.132573
vt 0.717739 0.132573
vt 0.184700 0.132573
vt 0.362380 0.132573
vt 0.540059 0.132573
vt 0.628899 0.132573
vt 0.273540 0.132573
vt 0.451219 0.132573
vt 0.095861 0.132573
vt 0.560209 0.533290
vt 0.560209 0.788127
vt 0.815047 0.788127
vt 0.815047 0.533290
vt 0.573982 0.547062
vt 0.573982 0.774354
vt 0.801274 0.774354
vt 0.801274 0.547062
vt 0.801274 0.774354
vt 0.806760 0.779840
vt 0.806760 0.541577
vt 0.801274 0.547062
vt 0.573982 0.774354
vt 0.568497 0.779840
vt 0.568497 0.541577
vt 0.573982 0.547062
vt 0.986671 0.788127
vt 0.050534 0.788127
vt 0.815047 0.959751
vt 0.181530 0.704913
vt 0.986671 0.533290
vt 0.815047 0.361666
vt 0.050534 0.533290
vt 0.181530 0.616503
vt 0.269940 0.704913
vt 0.386486 0.788754
vt 0.560209 0.959751
vt 0.560209 0.361666
vt 0.388144 0.532239
vt 0.269535 0.616908
s 1
f 65/78/1 20/28/2 4/8/3 59/72/4
f 63/76/5 14/20/6 8/12/7 60/73/8
f 64/77/9 22/30/10 6/10/11 61/74/12
f 62/75/13 16/23/14 2/4/15 58/71/16
f 26/34/17 21/29/18 5/9/19 15/22/20
f 36/45/21 38/47/22 47/57/23 45/55/24
f 15/21/20 17/24/25 9/14/26 1/1/27
f 21/29/18 23/31/28 12/17/29 5/9/19
f 13/18/30 18/25/31 11/16/32 7/11/33
f 19/27/34 24/32/35 10/15/36 3/6/37
f 3/6/37 10/15/36 18/25/31 13/18/30
f 5/9/19 12/17/29 17/24/25 15/21/20
f 34/43/38 39/48/39 49/59/40 43/53/41
f 19/26/34 26/34/17 15/22/20 1/2/27
f 61/74/12 6/10/11 16/23/14 62/75/13
f 59/72/4 4/8/3 14/20/6 63/76/5
f 3/7/37 13/19/30 26/34/17 19/26/34
f 1/3/27 9/13/26 24/32/35 19/27/34
f 7/11/33 11/16/32 23/31/28 21/29/18
f 35/44/42 34/43/38 43/53/41 54/66/43
f 13/19/30 7/11/33 21/29/18 26/34/17
f 60/73/8 8/12/7 22/30/10 64/77/9
f 58/70/16 2/5/15 20/28/2 65/78/1
f 37/46/44 36/45/21 45/55/24 56/68/45
f 39/48/39 40/50/46 51/63/47 49/59/40
f 40/49/46 41/51/48 53/65/49 51/62/47
f 38/47/22 35/44/42 54/66/43 47/57/23
f 41/51/48 37/46/44 56/68/45 53/65/49
f 16/23/14 6/10/11 37/46/44 41/51/48
f 8/12/7 14/20/6 35/44/42 38/47/22
f 2/4/15 16/23/14 41/51/48 40/49/46
f 20/28/2 2/5/15 40/50/46 39/48/39
f 22/30/10 8/12/7 38/47/22 36/45/21
f 4/8/3 20/28/2 39/48/39 34/43/38
f 14/20/6 4/8/3 34/43/38 35/44/42
f 6/10/11 22/30/10 36/45/21 37/46/44
f 48/58/50 50/61/51 33/41/52 25/33/53
f 52/64/54 57/69/55 31/39/56 32/40/57
f 50/60/51 52/64/54 32/40/57 33/42/52
f 46/56/58 55/67/59 28/36/60 29/37/61
f 44/54/62 46/56/58 29/37/61 30/38/63
f 55/67/59 42/52/64 27/35/65 28/36/60
f 57/69/55 44/54/62 30/38/63 31/39/56
f 57/69/55 52/64/54 53/65/49 56/68/45
f 55/67/59 46/56/58 47/57/23 54/66/43
f 52/64/54 50/60/51 51/62/47 53/65/49
f 50/61/51 48/58/50 49/59/40 51/63/47
f 46/56/58 44/54/62 45/55/24 47/57/23
f 48/58/50 42/52/64 43/53/41 49/59/40
f 42/52/64 55/67/59 54/66/43 43/53/41
f 44/54/62 57/69/55 56/68/45 45/55/24
f 42/52/64 48/58/50 25/33/53 27/35/65
f 9/13/26 58/70/16 65/78/1 24/32/35
f 11/16/32 60/73/8 64/77/9 23/31/28
f 10/15/36 59/72/4 63/76/5 18/25/31
f 12/17/29 61/74/12 62/75/13 17/24/25
f 17/24/25 62/75/13 58/71/16 9/14/26
f 23/31/28 64/77/9 61/74/12 12/17/29
f 18/25/31 63/76/5 60/73/8 11/16/32
f 24/32/35 65/78/1 59/72/4 10/15/36
f 68/81/66 69/82/67 84/99/68 82/95/69
f 78/91/70 81/94/71 70/83/72 71/84/73
f 66/79/74 88/106/75 84/100/68 69/82/67
f 83/98/76 85/102/77 89/108/78 86/103/79
f 87/104/80 88/107/75 66/79/74 67/80/81
f 77/90/82 74/87/83 72/85/84 73/86/85
f 81/94/71 77/90/82 73/86/85 70/83/72
f 79/92/86 75/88/87 68/81/66 67/80/81
f 71/84/73 70/83/72 73/86/85 72/85/84
f 80/93/88 79/92/86 67/80/81 66/79/74
f 76/89/89 80/93/88 66/79/74 69/82/67
f 75/88/87 76/89/89 69/82/67 68/81/66
f 81/94/71 78/91/70 79/92/86 80/93/88
f 75/88/87 79/92/86 78/91/70 74/87/83
f 80/93/88 76/89/89 77/90/82 81/94/71
f 76/89/89 75/88/87 74/87/83 77/90/82
f 74/87/83 78/91/70 71/84/73 72/85/84
f 87/104/80 82/96/69 83/98/76 86/103/79
f 82/96/69 84/101/68 85/102/77 83/98/76
f 84/101/68 88/107/75 89/108/78 85/102/77
f 88/107/75 87/104/80 86/103/79 89/108/78
f 87/105/80 67/80/81 68/81/66 82/97/69
